<?xml version="1.0" standalone="no"?>
<!DOCTYPE svg PUBLIC "-//W3C//DTD SVG 20010904//EN"
 "http://www.w3.org/TR/2001/REC-SVG-20010904/DTD/svg10.dtd">
<svg version="1.0" xmlns="http://www.w3.org/2000/svg"
 width="189.000000pt" height="112.000000pt" viewBox="0 0 189.000000 112.000000"
 preserveAspectRatio="xMidYMid meet">

<g transform="translate(0.000000,112.000000) scale(0.100000,-0.100000)"
fill="#000000" stroke="none">
<path d="M830 1005 c-4 -34 1 -49 25 -75 31 -32 27 -71 -10 -110 -19 -20 -25
-34 -21 -47 6 -15 5 -16 -6 -5 -10 10 -10 16 0 33 8 12 11 23 8 26 -2 3 -11
-8 -20 -24 -11 -21 -15 -24 -16 -9 0 10 11 31 25 48 27 32 31 54 14 78 -8 12
-9 10 -4 -8 5 -18 -2 -33 -35 -68 -35 -38 -41 -50 -38 -82 l3 -37 95 0 95 0
12 37 c19 57 1 104 -62 163 -29 28 -55 61 -58 75 -3 20 -5 21 -7 5z"/>
<path d="M844 845 c-10 -8 -14 -15 -8 -15 6 0 17 7 24 15 16 19 9 19 -16 0z"/>
<path d="M96 778 c-3 -13 -6 -33 -6 -45 0 -22 3 -23 93 -23 50 0 97 -4 104 -8
38 -24 38 -109 1 -171 -20 -32 -74 -65 -90 -55 -5 3 -8 52 -8 110 l0 104 -45
0 -45 0 0 -150 0 -150 70 0 c39 0 85 6 103 14 108 45 170 212 118 319 -31 63
-64 77 -189 77 -95 0 -100 -1 -106 -22z"/>
<path d="M1122 593 l3 -208 112 -3 c122 -3 122 -3 137 61 l6 27 -80 0 -80 0 0
40 0 40 54 0 c61 0 61 0 71 53 l7 37 -66 0 -66 0 0 35 0 35 74 0 c80 0 76 -3
90 63 l6 27 -135 0 -135 0 2 -207z"/>
<path d="M1446 792 c-2 -4 -7 -24 -11 -45 l-7 -37 100 0 c93 0 102 -2 116 -22
20 -28 21 -88 2 -132 -16 -37 -60 -76 -87 -76 -17 0 -19 9 -19 105 l0 105 -50
0 -50 0 0 -150 0 -150 75 0 c115 0 172 36 216 135 28 62 30 155 5 203 -30 57
-67 72 -183 72 -56 0 -104 -3 -107 -8z"/>
<path d="M512 686 c-37 -17 -52 -49 -52 -113 0 -102 72 -183 162 -183 45 0 48
2 56 33 7 26 5 33 -7 35 -68 12 -67 9 -17 62 40 43 46 55 46 93 0 60 -23 80
-98 84 -35 2 -69 -2 -90 -11z m108 -82 c0 -20 -59 -76 -71 -68 -13 8 -11 58 3
72 18 18 68 15 68 -4z"/>
<path d="M747 693 c-4 -3 -7 -19 -7 -35 l0 -28 105 0 105 0 0 35 0 35 -98 0
c-54 0 -102 -3 -105 -7z"/>
<path d="M973 583 c2 -115 2 -118 -20 -121 -19 -3 -23 -10 -23 -38 0 -34 1
-34 44 -34 36 0 48 5 65 26 18 23 21 41 21 131 0 97 -2 106 -25 128 -13 14
-33 25 -44 25 -19 0 -20 -6 -18 -117z"/>
<path d="M786 578 c3 -18 9 -62 13 -98 l8 -65 2 60 c1 70 -8 135 -20 135 -4 0
-5 -15 -3 -32z"/>
<path d="M830 461 c0 -187 7 -241 30 -241 15 0 19 19 29 143 7 78 16 166 20
195 l8 52 -44 0 -43 0 0 -149z"/>
<path d="M103 265 c0 -22 2 -30 4 -17 2 12 2 30 0 40 -3 9 -5 -1 -4 -23z"/>
<path d="M134 265 c0 -19 4 -31 8 -29 4 3 8 16 8 29 0 13 -4 26 -8 29 -4 2 -8
-10 -8 -29z"/>
<path d="M170 265 c0 -19 4 -35 9 -35 12 0 19 29 13 53 -7 30 -22 18 -22 -18z"/>
<path d="M241 263 c0 -21 3 -31 6 -23 3 8 12 19 19 23 21 12 17 37 -6 37 -17
0 -20 -6 -19 -37z m29 17 c0 -5 -4 -10 -10 -10 -5 0 -10 5 -10 10 0 6 5 10 10
10 6 0 10 -4 10 -10z"/>
<path d="M365 265 c0 -19 3 -35 8 -35 4 0 7 16 7 35 0 19 -3 35 -7 35 -5 0 -8
-16 -8 -35z"/>
<path d="M397 279 c-6 -22 1 -49 12 -49 8 0 8 56 0 65 -4 3 -9 -4 -12 -16z"/>
<path d="M450 265 c0 -19 5 -35 10 -35 6 0 10 16 10 35 0 19 -4 35 -10 35 -5
0 -10 -16 -10 -35z"/>
<path d="M500 293 c1 -10 39 -60 40 -51 0 17 -21 58 -30 58 -5 0 -10 -3 -10
-7z"/>
<path d="M558 295 c-8 -8 3 -65 13 -65 5 0 9 16 9 35 0 32 -8 43 -22 30z"/>
<path d="M600 265 c0 -19 5 -35 11 -35 5 0 7 5 3 11 -3 6 0 15 7 20 12 7 12 9
0 9 -7 0 -11 6 -7 15 3 8 1 15 -4 15 -6 0 -10 -16 -10 -35z"/>
<path d="M687 264 c15 -20 29 -31 31 -24 4 12 -35 60 -50 60 -5 0 3 -16 19
-36z"/>
<path d="M750 265 c0 -19 5 -35 10 -35 6 0 10 16 10 35 0 19 -4 35 -10 35 -5
0 -10 -16 -10 -35z"/>
<path d="M917 293 c-9 -9 -9 -51 1 -56 4 -3 7 10 8 29 1 37 0 37 -9 27z"/>
<path d="M955 265 c0 -26 3 -31 13 -23 6 6 12 16 12 23 0 7 -6 17 -12 23 -10
8 -13 3 -13 -23z"/>
<path d="M990 265 c0 -19 5 -35 10 -35 6 0 10 6 10 14 0 8 6 17 13 19 10 4 10
6 0 6 -7 1 -13 8 -13 16 0 8 -4 15 -10 15 -5 0 -10 -16 -10 -35z"/>
<path d="M1130 265 c0 -19 4 -35 9 -35 12 0 19 29 13 53 -7 30 -22 18 -22 -18z"/>
<path d="M1200 265 c0 -19 5 -35 10 -35 6 0 10 16 10 35 0 19 -4 35 -10 35 -5
0 -10 -16 -10 -35z"/>
<path d="M1235 265 c0 -26 3 -31 13 -23 6 6 12 16 12 23 0 7 -6 17 -12 23 -10
8 -13 3 -13 -23z"/>
<path d="M1278 265 c2 -19 7 -35 11 -35 4 0 5 16 3 35 -2 19 -7 35 -11 35 -4
0 -5 -16 -3 -35z"/>
<path d="M1349 279 c-9 -17 -8 -25 5 -37 13 -14 14 -13 9 6 -3 12 0 29 7 37 8
10 9 15 2 15 -6 0 -16 -10 -23 -21z"/>
<path d="M1498 293 c6 -2 12 -18 12 -34 0 -16 3 -29 8 -29 4 0 7 16 7 35 0 29
-4 35 -20 34 -11 0 -14 -3 -7 -6z"/>
<path d="M1560 265 c0 -19 5 -35 10 -35 6 0 10 16 10 35 0 19 -4 35 -10 35 -5
0 -10 -16 -10 -35z"/>
<path d="M1607 293 c-10 -9 -9 -51 1 -57 4 -2 8 11 8 30 0 37 0 37 -9 27z"/>
<path d="M1645 265 c0 -26 3 -31 13 -23 6 6 12 16 12 23 0 7 -6 17 -12 23 -10
8 -13 3 -13 -23z"/>
<path d="M1680 294 c0 -3 13 -19 30 -37 20 -22 30 -27 30 -16 0 8 -10 25 -23
37 -23 21 -37 28 -37 16z"/>
<path d="M310 285 c0 -13 24 -55 32 -55 5 0 2 14 -7 30 -14 27 -25 38 -25 25z"/>
<path d="M1440 285 c0 -12 24 -55 32 -55 11 0 10 4 -4 35 -9 21 -28 35 -28 20z"/>
<path d="M833 193 c9 -2 25 -2 35 0 9 3 1 5 -18 5 -19 0 -27 -2 -17 -5z"/>
</g>
</svg>
